<svg xmlns="http://www.w3.org/2000/svg" xmlns:xlink="http://www.w3.org/1999/xlink" width="50" height="50" viewBox="0 0 50 50"><defs><path id="ju0ka" d="M0 25C0 11.2 11.21 0 25.04 0a25.02 25.02 0 0 1 25.04 25c0 13.8-11.21 25-25.04 25A25.02 25.02 0 0 1 0 25zm13.7 7.44c0 1.9 1 3.15 3.13 3.15 1.77 0 3.2-1.07 4.24-2.8l-.63 2.58h3.5l2.01-8.24c.5-2.09 1.48-3.17 2.95-3.17 1.16 0 1.88.74 1.88 1.96 0 .35-.03.74-.15 1.15l-1.04 3.8c-.15.54-.22 1.08-.22 1.6 0 1.8 1.04 3.11 3.2 3.11 1.85 0 3.33-1.22 4.14-4.14l-1.38-.54c-.69 1.95-1.28 2.3-1.75 2.3-.48 0-.73-.31-.73-.96 0-.28.07-.6.16-1l1-3.68c.25-.87.35-1.64.35-2.35 0-2.76-1.63-4.2-3.6-4.2-1.86 0-3.74 1.71-4.68 3.51l.69-3.23h-5.36l-.76 2.84h2.51l-1.54 6.34c-1.21 2.76-3.44 2.8-3.72 2.74-.46-.1-.76-.28-.76-.9 0-.35.07-.85.22-1.46l2.36-9.56h-5.96L13 24.13h2.48l-1.6 6.7a7.56 7.56 0 0 0-.19 1.61zm6.74-15.29a2.13 2.13 0 1 0-4.27 0 2.13 2.13 0 1 0 4.27 0z"/></defs><g><g><use fill="#fff" xlink:href="#ju0ka"/></g></g></svg>