<svg xmlns="http://www.w3.org/2000/svg" xmlns:xlink="http://www.w3.org/1999/xlink" width="50" height="50" viewBox="0 0 50 50"><defs><path id="cscxa" d="M0 25C0 11.2 11.21 0 25.04 0a25.02 25.02 0 0 1 25.04 25c0 13.8-11.21 25-25.04 25A25.02 25.02 0 0 1 0 25zm33.2 4.9c.04-.9 0-1.78-.14-2.65-.13-.74-.32-1.47-.6-2.17l-.07-.15c-.27.15-.53.3-.8.42-.26.12-.53.22-.8.32-.28.1-.57.17-.85.25v.06l.04.11c.4.99.57 2.02.58 3.08a8.43 8.43 0 0 1-2.3 5.95 7.63 7.63 0 0 1-4.95 2.33c-.18.02-.36.01-.55.02l.01-.06.3-.22a15.97 15.97 0 0 0 4.73-5.7c.93-1.88 1.4-3.89 1.45-6a15.9 15.9 0 0 0-.24-3.05 19.04 19.04 0 0 0-1-3.54l-.04-.27v-.1c-.1-.95-.28-1.88-.54-2.8a12.95 12.95 0 0 0-1.57-3.53 9.24 9.24 0 0 0-1.73-2.03l-.21-.17c0 .04-.02.07 0 .08.04.1.1.18.15.27a50.65 50.65 0 0 1 3.12 6.35l.7 1.82.07.12.04.27.03.94a40.71 40.71 0 0 1-.48 7.25c-.16.95-.37 1.89-.64 2.81a16.89 16.89 0 0 1-1.32 3.29c-.5.92-1.1 1.78-1.87 2.51a7.6 7.6 0 0 1-2.39 1.59.5.5 0 0 1-.3.03 7.7 7.7 0 0 1-5.34-3.96 8.51 8.51 0 0 1-.96-5.25 8.23 8.23 0 0 1 5.18-6.74 7.48 7.48 0 0 1 3.39-.45 7 7 0 0 1 2 .45l.2.06a7.2 7.2 0 0 1 .78-2.5c-.1-.08-.21-.1-.31-.14a11.47 11.47 0 0 0-5.62-.28 9.55 9.55 0 0 0-3.23 1.28c-.95.6-1.77 1.34-2.5 2.2a10.74 10.74 0 0 0-2.6 6.55c-.04.7-.01 1.42.08 2.13.13 1 .38 1.97.78 2.9.65 1.49 1.59 2.77 2.79 3.87.88.82 1.89 1.44 3.02 1.87a12.1 12.1 0 0 0 6.34.44 9.56 9.56 0 0 0 3.76-1.68c.88-.65 1.63-1.43 2.28-2.31 1.3-1.75 2-3.7 2.12-5.88m4.66-13.32a9.96 9.96 0 0 0-1.3-5.62l-.22-.33-.16.28c-.3.57-.68 1.09-1.14 1.54a5.37 5.37 0 0 1-2.48 1.4l-.25.08c-.7.2-1.4.47-2.03.84a3.89 3.89 0 0 0-1.94 3.52c.03.77.25 1.49.62 2.16l.09.12a10.53 10.53 0 0 0 6.89-5.23l-.01.18c-.06.24-.14.46-.25.68-.23.48-.55.9-.9 1.3-.63.7-1.33 1.3-2.06 1.86-.9.68-1.83 1.3-2.8 1.86-.07.04-.15.07-.2.16l.38.34c.5.42 1.04.76 1.66.96.58.2 1.17.24 1.78.14a3.98 3.98 0 0 0 1.94-.94c.55-.47.98-1.04 1.34-1.65.2-.36.4-.73.54-1.12.28-.82.44-1.67.5-2.53"/></defs><g><g><use fill="#fff" xlink:href="#cscxa"/></g></g></svg>