<svg xmlns="http://www.w3.org/2000/svg" xmlns:xlink="http://www.w3.org/1999/xlink" width="50" height="50" viewBox="0 0 50 50"><defs><path id="12ifa" d="M.49 25a24.51 24.51 0 1 1 49.02 0A24.51 24.51 0 0 1 .49 25zm35.06-6.83c-.9-.95-1.9-.96-2.36-1.01-3.29-.25-8.22-.25-8.22-.25s-4.94 0-8.23.25c-.46.05-1.46.06-2.35 1.01-.7.73-.93 2.39-.93 2.39s-.24 1.95-.24 3.9v1.82c0 1.94.24 3.89.24 3.89s.22 1.65.93 2.38c.9.96 2.07.93 2.59 1.03 1.88.19 7.99.24 7.99.24s4.93 0 8.22-.25c.46-.05 1.46-.06 2.36-1.02.7-.73.93-2.38.93-2.38s.24-1.95.24-3.9v-1.82c0-1.94-.24-3.89-.24-3.89s-.23-1.66-.93-2.39z"/><path id="12ifb" d="M22.55 28.43v-6.86l5.88 3.44z"/></defs><g><g><use fill="#fff" xlink:href="#12ifa"/></g><g><use fill="#fff" xlink:href="#12ifb"/></g></g></svg>